Coordinates
version=1
nRows=32
nColumns=12
inDegrees=yes

Units are S.I. units (second, meters, Newtons, ...)
Angles are in degrees

endheader
time	SC_y	SC_z	SC_x	AC_y	AC_z	AC_x	GH_y	GH_z	GH_yy	EL_x	PS_y
       0.0              -47.21          10.05          19.65          43.59          4.832         -7.742           72.8          28.85         -167.1          92.88          37.19
  0.006313               -47.2          10.05          19.65          43.59          4.829         -7.743          72.78          28.86         -167.0          92.87          37.21
   0.01263               -47.2          10.05          19.66           43.6          4.825         -7.745          72.76          28.87         -167.0          92.87          37.23
   0.01894              -47.19          10.05          19.67           43.6          4.822         -7.746          72.73          28.88         -167.0          92.86          37.24
   0.02525              -47.19          10.05          19.69           43.6          4.818         -7.747          72.71          28.89         -166.9          92.85          37.26
   0.03157              -47.18          10.05           19.7           43.6          4.813         -7.748          72.68           28.9         -166.9          92.84          37.28
   0.03788              -47.18          10.05          19.71           43.6          4.809         -7.749          72.66          28.91         -166.9          92.82          37.31
   0.04419              -47.17          10.05          19.72          43.61          4.804         -7.751          72.63          28.92         -166.8          92.81          37.33
   0.05051              -47.16          10.05          19.74          43.61          4.799         -7.753           72.6          28.94         -166.8           92.8          37.35
   0.05682              -47.16          10.05          19.75          43.61          4.794         -7.754          72.56          28.95         -166.7          92.78          37.38
   0.06313              -47.15          10.05          19.77          43.62          4.788         -7.756          72.53          28.97         -166.6          92.77          37.41
   0.06945              -47.14          10.06          19.79          43.62          4.781         -7.758          72.49          28.98         -166.6          92.75          37.44
   0.07576              -47.13          10.06          19.81          43.62          4.775          -7.76          72.44           29.0         -166.5          92.74          37.47
   0.08208              -47.12          10.06          19.83          43.63          4.767         -7.762           72.4          29.02         -166.4          92.72          37.51
   0.08839              -47.11          10.06          19.85          43.63          4.759         -7.765          72.35          29.04         -166.4           92.7          37.55
    0.0947               -47.1          10.06          19.87          43.64           4.75         -7.767           72.3          29.07         -166.3          92.67          37.59
     0.101              -47.08          10.06           19.9          43.64          4.741          -7.77          72.24          29.09         -166.2          92.65          37.64
    0.1073              -47.07          10.06          19.93          43.65          4.731         -7.773          72.18          29.12         -166.1          92.62          37.69
    0.1136              -47.06          10.06          19.96          43.65           4.72         -7.777          72.11          29.15         -166.0          92.59          37.74
      0.12              -47.04          10.07          19.99          43.66          4.707         -7.781          72.03          29.18         -165.8          92.56           37.8
    0.1263              -47.02          10.07          20.03          43.66          4.694         -7.785          71.95          29.21         -165.7          92.53          37.87
    0.1326               -47.0          10.07          20.07          43.67          4.679         -7.789          71.86          29.25         -165.6          92.49          37.94
    0.1389              -46.98          10.07          20.12          43.68          4.663         -7.794          71.76           29.3         -165.4          92.45          38.02
    0.1452              -46.95          10.07          20.17          43.69          4.644           -7.8          71.65          29.34         -165.2           92.4          38.11
    0.1515              -46.93          10.08          20.22           43.7          4.624         -7.806          71.53           29.4         -165.0          92.35           38.2
    0.1578               -46.9          10.08          20.29          43.71          4.602         -7.813          71.39          29.46         -164.8          92.29          38.31
    0.1642              -46.86          10.08          20.36          43.73          4.576         -7.821          71.23          29.52         -164.6          92.23          38.43
    0.1705              -46.82          10.09          20.43          43.74          4.548         -7.829          71.06           29.6         -164.3          92.15          38.57
    0.1768              -46.78          10.09          20.52          43.76          4.516         -7.839          70.86          29.68         -164.0          92.07          38.73
    0.1831              -46.73           10.1          20.62          43.78           4.48          -7.85          70.64          29.78         -163.6          91.98          38.91
    0.1894              -46.67           10.1          20.74           43.8          4.438         -7.863          70.39          29.89         -163.2          91.87          39.11
    0.1957              -46.61          10.11          20.87          43.82           4.39         -7.878          70.09          30.01         -162.7          91.75          39.34
